<?xml version="1.0" encoding="utf-8"?>
<!-- Generator: Adobe Illustrator 19.1.0, SVG Export Plug-In . SVG Version: 6.00 Build 0)  -->
<svg version="1.1" xmlns="http://www.w3.org/2000/svg" xmlns:xlink="http://www.w3.org/1999/xlink" x="0px" y="0px"
	 viewBox="0 0 288.8 141.7" enable-background="new 0 0 288.8 141.7" xml:space="preserve">
<symbol  id="Kijiji_Logo_1_" viewBox="-284.4 -139.6 568.8 279.2">
	<path fill="#3E438A" d="M-236.9,53l56.8,85.7h58.2l-71.9-98.3l78.4-109.4h-60.9L-236.9,21h-0.5v-90.1h-47v207.7h47V53H-236.9z"/>
	<g>
		<path fill="#EEA720" d="M-76.5,119.6c2.4,0,3.9-0.7,5.7-2.4c1.8-1.8,2.4-3.3,2.4-5.7s-0.7-3.9-2.4-5.7c-1.8-1.8-3.3-2.4-5.7-2.4
			c-2.4,0-3.9,0.7-5.7,2.4c-1.8,1.8-2.4,3.3-2.4,5.7s0.7,3.9,2.4,5.7C-80.4,118.9-78.9,119.6-76.5,119.6 M-76.5,139.6
			c-7.7,0-14.3-2.8-19.8-8.3s-8.3-12.1-8.3-19.8s2.8-14.3,8.3-19.8s12.1-8.3,19.8-8.3c7.7,0,14.3,2.8,19.8,8.3s8.3,12.1,8.3,19.8
			s-2.8,14.3-8.3,19.8S-68.8,139.6-76.5,139.6L-76.5,139.6z"/>
	</g>
	<polygon fill="#3E438A" points="-51.4,61.2 -51.4,-69.1 -101.5,-69.1 -101.5,61.2 	"/>
	<g>
		<path fill="#E56533" d="M6.7,119.6c2.4,0,3.9-0.7,5.7-2.4s2.4-3.3,2.4-5.7s-0.7-3.9-2.4-5.7s-3.3-2.4-5.7-2.4s-3.9,0.7-5.7,2.4
			s-2.4,3.3-2.4,5.7s0.7,3.9,2.4,5.7S4.3,119.6,6.7,119.6 M6.7,139.6c-7.7,0-14.3-2.8-19.8-8.3s-8.3-12.1-8.3-19.8
			s2.8-14.3,8.3-19.8S-1,83.4,6.7,83.4s14.3,2.8,19.8,8.3s8.3,12.1,8.3,19.8s-2.8,14.3-8.3,19.8S14.4,139.6,6.7,139.6L6.7,139.6z"/>
	</g>
	<polygon fill="#3E438A" points="31.8,61.2 31.8,-139.6 -18.3,-139.6 -18.3,61.2 	"/>
	<g>
		<path fill="#7383C0" d="M89.9,119.6c2.4,0,3.9-0.7,5.7-2.4c1.8-1.8,2.4-3.3,2.4-5.7s-0.7-3.9-2.4-5.7c-1.8-1.8-3.3-2.4-5.7-2.4
			c-2.4,0-3.9,0.7-5.7,2.4c-1.8,1.8-2.4,3.3-2.4,5.7s0.7,3.9,2.4,5.7C86,118.9,87.5,119.6,89.9,119.6 M89.9,139.6
			c-7.7,0-14.3-2.8-19.8-8.3s-8.3-12.1-8.3-19.8s2.8-14.3,8.3-19.8s12.1-8.3,19.8-8.3c7.7,0,14.3,2.8,19.8,8.3s8.3,12.1,8.3,19.8
			s-2.8,14.3-8.3,19.8S97.6,139.6,89.9,139.6L89.9,139.6z"/>
	</g>
	<polygon fill="#3E438A" points="115,61.2 115,-69.1 64.8,-69.1 64.8,61.2 	"/>
	<g>
		<path fill="#ADC840" d="M173.1,119.6c2.4,0,3.9-0.7,5.7-2.4c1.8-1.8,2.4-3.3,2.4-5.7s-0.7-3.9-2.4-5.7c-1.8-1.8-3.3-2.4-5.7-2.4
			c-2.4,0-3.9,0.7-5.7,2.4c-1.8,1.8-2.4,3.3-2.4,5.7s0.7,3.9,2.4,5.7C169.2,118.9,170.7,119.6,173.1,119.6 M173.1,139.6
			c-7.7,0-14.3-2.8-19.8-8.3s-8.3-12.1-8.3-19.8s2.8-14.3,8.3-19.8s12.1-8.3,19.8-8.3c7.7,0,14.3,2.8,19.8,8.3s8.3,12.1,8.3,19.8
			s-2.8,14.3-8.3,19.8S180.8,139.6,173.1,139.6L173.1,139.6z"/>
	</g>
	<polygon fill="#3E438A" points="198.2,61.2 198.2,-139.6 148,-139.6 148,61.2 	"/>
	<g>
		<path fill="#A04299" d="M256.3,119.6c2.4,0,3.9-0.7,5.7-2.4s2.4-3.3,2.4-5.7s-0.7-3.9-2.4-5.7s-3.3-2.4-5.7-2.4s-3.9,0.7-5.7,2.4
			s-2.4,3.3-2.4,5.7s0.7,3.9,2.4,5.7S253.9,119.6,256.3,119.6 M256.3,139.6c-7.7,0-14.3-2.8-19.8-8.3s-8.3-12.1-8.3-19.8
			s2.8-14.3,8.3-19.8s12.1-8.3,19.8-8.3s14.3,2.8,19.8,8.3s8.3,12.1,8.3,19.8s-2.8,14.3-8.3,19.8S264,139.6,256.3,139.6L256.3,139.6
			z"/>
	</g>
	<polygon fill="#3E438A" points="281.3,61.2 281.3,-69.1 231.2,-69.1 231.2,61.2 	"/>
</symbol>
<g id="Layer_4">
	
		<use xlink:href="#Kijiji_Logo_1_"  width="568.8" height="279.2" id="XMLID_49_" x="-284.4" y="-139.6" transform="matrix(0.5077 0 0 -0.5077 144.3781 70.8733)" overflow="visible"/>
	<g id="Kijiji_Logo">
	</g>
</g>
<g id="Desktop_Guides" display="none">
	<g id="Desktop_Grid" display="inline">
	</g>
</g>
<g id="Mobile_Guides">
</g>
</svg>
