<?xml version="1.0" encoding="utf-8"?>
<!-- Generator: Adobe Illustrator 19.1.0, SVG Export Plug-In . SVG Version: 6.00 Build 0)  -->
<svg version="1.1" xmlns="http://www.w3.org/2000/svg" xmlns:xlink="http://www.w3.org/1999/xlink" x="0px" y="0px"
	 viewBox="0 0 14 14" enable-background="new 0 0 14 14" xml:space="preserve">
<g id="Layer_4">
	<g id="Kijiji_Logo">
	</g>
	<g id="Vk9csx.tif_2_">
		<g>
			<path fill="#D1D3D4" d="M11.8,5.9c0,1.2-0.3,2.2-0.9,3.2c-0.1,0.1-0.1,0.2,0,0.4c0.9,0.9,1.8,1.7,2.6,2.6c0.5,0.6,0.6,1.3,0,1.7
				c-0.5,0.4-0.8,0.4-1.3,0c-0.4-0.4-0.8-0.8-1.2-1.2c-0.5-0.5-1.1-1-1.6-1.6c-0.1-0.1-0.2-0.1-0.3,0c-1.7,1.1-3.5,1.2-5.4,0.5
				c-2.1-0.9-3.3-2.5-3.7-4.8C-0.3,4,1.2,1.2,4.1,0.3c2.7-0.9,5.9,0.4,7.1,3C11.6,4.1,11.8,5,11.8,5.9z M5.9,9.7
				C8,9.7,9.7,8,9.7,5.9c0-2.1-1.7-3.8-3.7-3.8c-2.1,0-3.8,1.7-3.8,3.7C2.1,8,3.8,9.7,5.9,9.7z"/>
		</g>
	</g>
</g>
<g id="Desktop_Guides" display="none">
	<g id="Desktop_Grid" display="inline">
	</g>
</g>
<g id="Mobile_Guides">
</g>
</svg>
